<svg width="27" height="27" viewBox="0 0 27 27" fill="none" xmlns="http://www.w3.org/2000/svg">
<g clip-path="url(#clip0_1_1032)">
<path d="M13.5 27C20.9558 27 27 20.9558 27 13.5C27 6.04416 20.9558 0 13.5 0C6.04416 0 0 6.04416 0 13.5C0 20.9558 6.04416 27 13.5 27Z" fill="url(#paint0_linear_1_1032)"/>
<path fill-rule="evenodd" clip-rule="evenodd" d="M6.11041 13.3574C10.0459 11.6428 12.6702 10.5124 13.9833 9.96625C17.7324 8.40687 18.5114 8.13599 19.0192 8.12705C19.1309 8.12508 19.3806 8.15276 19.5423 8.284C19.6789 8.39483 19.7165 8.54453 19.7344 8.6496C19.7524 8.75467 19.7748 8.99403 19.757 9.18105C19.5539 11.3157 18.6748 16.496 18.2275 18.8869C18.0383 19.8985 17.6657 20.2377 17.3049 20.2709C16.521 20.3431 15.9257 19.7528 15.1663 19.2551C13.9782 18.4762 13.3069 17.9914 12.1536 17.2313C10.8207 16.353 11.6848 15.8702 12.4444 15.0813C12.6432 14.8748 16.0973 11.733 16.1642 11.448C16.1726 11.4123 16.1803 11.2794 16.1014 11.2093C16.0225 11.1391 15.9059 11.1631 15.8219 11.1822C15.7027 11.2092 13.8046 12.4638 10.1275 14.946C9.58872 15.3159 9.10071 15.4962 8.66348 15.4867C8.18146 15.4763 7.25424 15.2142 6.56496 14.9901C5.71952 14.7153 5.04758 14.57 5.10609 14.1033C5.13657 13.8602 5.47134 13.6116 6.11041 13.3574Z" fill="white"/>
</g>
<defs>
<linearGradient id="paint0_linear_1_1032" x1="13.5" y1="0" x2="13.5" y2="26.7998" gradientUnits="userSpaceOnUse">
<stop stop-color="#2AABEE"/>
<stop offset="1" stop-color="#229ED9"/>
</linearGradient>
<clipPath id="clip0_1_1032">
<rect width="27" height="27" fill="white"/>
</clipPath>
</defs>
</svg>
